<svg width="200" height="200" viewBox="0 0 200 200" fill="none" xmlns="http://www.w3.org/2000/svg">
<rect width="200" height="200" fill="#1E1E1E"/>
<g id="Frame 1" clip-path="url(#clip0_0_1)">
<circle id="Ellipse 1" cx="100" cy="100" r="100" fill="white"/>
<rect id="Rectangle 1" width="100" height="100" fill="white"/>
<rect id="Rectangle 2" x="100" y="100" width="100" height="100" fill="white"/>
<path id="&#228;&#184;&#139;&#231;&#149;&#140;" d="M4.64 31.232V34.88H47.36V31.232H4.64ZM23.12 34.112V71.792H26.912V34.112H23.12ZM25.232 45.488C31.04 48.464 38.528 53.024 42.224 56L44.768 52.736C40.928 49.856 33.344 45.488 27.584 42.704L25.232 45.488ZM61.088 40.304H86.816V45.536H61.088V40.304ZM61.088 32.288H86.816V37.424H61.088V32.288ZM57.488 29.264V48.512H90.512V29.264H57.488ZM79.28 46.544L76.208 47.696C80 53.168 86.864 57.728 93.728 59.936C94.256 58.976 95.312 57.584 96.128 56.864C89.408 55.088 82.64 51.2 79.28 46.544ZM68.912 46.544C65.456 51.152 58.592 55.28 52.112 57.152C52.928 57.872 53.984 59.216 54.56 60.128C61.136 57.776 68.192 53.168 72.032 47.84L68.912 46.544ZM64.928 54.992V57.872C64.928 61.424 64.064 66.08 55.616 69.248C56.432 69.968 57.584 71.216 58.112 72.128C67.424 68.384 68.576 62.576 68.576 57.968V54.992H64.928ZM72.08 30.848V47.168H75.728V30.848H72.08ZM80.192 54.992V71.744H83.888V54.992H80.192Z" fill="black"/>
</g>
<defs>
<clipPath id="clip0_0_1">
<rect width="200" height="200" fill="white"/>
</clipPath>
</defs>
</svg>
